<svg width="41" height="26" viewBox="0 0 41 26" fill="none" xmlns="http://www.w3.org/2000/svg">
<path d="M30.0276 7.814C31.3285 8.63654 32.5223 9.61737 33.5816 10.734C35.3114 12.5623 36.6729 14.7067 37.5916 17.05C38.2776 18.796 38.7196 20.632 38.9016 22.504C39.0096 23.604 38.1036 24.5 36.9996 24.5H3.99962C2.89562 24.5 1.98962 23.602 2.09762 22.504C2.27962 20.632 2.72162 18.796 3.40762 17.05C4.32658 14.7074 5.68803 12.5637 7.41762 10.736C8.47679 9.61867 9.67059 8.63716 10.9716 7.814M30.0276 7.814C29.2462 7.31839 28.4278 6.88377 27.5796 6.514C25.3467 5.53858 22.9363 5.03473 20.4996 5.034C18.0629 5.03473 15.6526 5.53858 13.4196 6.514C12.5714 6.88377 11.753 7.31839 10.9716 7.814M30.0276 7.814L33.4796 1.5M10.9716 7.814L7.51962 1.5" stroke="white" stroke-width="3" stroke-linecap="round" stroke-linejoin="round"/>
<path d="M14 18.626C15.3807 18.626 16.5 17.5067 16.5 16.126C16.5 14.7453 15.3807 13.626 14 13.626C12.6193 13.626 11.5 14.7453 11.5 16.126C11.5 17.5067 12.6193 18.626 14 18.626Z" fill="white"/>
<path d="M27 18.626C28.3807 18.626 29.5 17.5067 29.5 16.126C29.5 14.7453 28.3807 13.626 27 13.626C25.6193 13.626 24.5 14.7453 24.5 16.126C24.5 17.5067 25.6193 18.626 27 18.626Z" fill="white"/>
</svg>
