<svg width="40" height="40" viewBox="0 0 40 40" fill="none" xmlns="http://www.w3.org/2000/svg">
<path d="M26 40C25.4333 40 24.9587 39.808 24.576 39.424C24.1933 39.04 24.0013 38.5653 24 38V35.85C23.2333 35.7167 22.508 35.5247 21.824 35.274C21.14 35.0233 20.4987 34.682 19.9 34.25L17.9 36.25C17.5 36.6167 17.0253 36.8087 16.476 36.826C15.9267 36.8433 15.4513 36.6513 15.05 36.25C14.6487 35.8487 14.4487 35.374 14.45 34.826C14.4513 34.278 14.6513 33.8027 15.05 33.4L17.1 31.35C17 31.1833 16.9 31.0087 16.8 30.826C16.7 30.6433 16.6 30.468 16.5 30.3L15.15 27.65L12.7 30.1C12.3 30.4667 11.8333 30.6587 11.3 30.676C10.7667 30.6933 10.3 30.5013 9.90001 30.1C9.50001 29.6987 9.30001 29.232 9.30001 28.7C9.30001 28.168 9.50001 27.7013 9.90001 27.3L12.35 24.8L9.70001 23.5C9.53334 23.4333 9.38334 23.3587 9.25001 23.276C9.11667 23.1933 8.96667 23.1013 8.80001 23L7.00001 24.8C6.60001 25.1667 6.12534 25.3587 5.57601 25.376C5.02667 25.3933 4.55134 25.2013 4.15001 24.8C3.74867 24.3987 3.54867 23.932 3.55001 23.4C3.55134 22.868 3.75134 22.4013 4.15001 22L5.90001 20.25C5.43334 19.6167 5.05867 18.942 4.77601 18.226C4.49334 17.51 4.28467 16.768 4.15001 16H2.00001C1.43334 16 0.958674 15.808 0.576007 15.424C0.19334 15.04 0.00134023 14.5653 6.89654e-06 14C-0.00132644 13.4347 0.190674 12.96 0.576007 12.576C0.96134 12.192 1.43601 12 2.00001 12H4.25001C4.41667 11.3667 4.61667 10.7667 4.85001 10.2C5.08334 9.63334 5.38334 9.08334 5.75001 8.55001L4.00001 6.80001C3.60001 6.40001 3.40001 5.93334 3.40001 5.40001C3.40001 4.86667 3.60001 4.40001 4.00001 4.00001C4.40001 3.60001 4.86667 3.40001 5.40001 3.40001C5.93334 3.40001 6.40001 3.60001 6.80001 4.00001L8.55001 5.75001C9.08334 5.38334 9.63334 5.08334 10.2 4.85001C10.7667 4.61667 11.3667 4.41667 12 4.25001V2.00001C12 1.43334 12.192 0.958007 12.576 0.574007C12.96 0.190007 13.4347 -0.00132641 14 6.92042e-06C14.5653 0.00134025 15.0407 0.19334 15.426 0.576007C15.8113 0.958674 16.0027 1.43334 16 2.00001V4.15001C16.8 4.28334 17.5587 4.50001 18.276 4.80001C18.9933 5.10001 19.668 5.48334 20.3 5.95001L22.05 4.20001C22.45 3.80001 22.9247 3.60001 23.474 3.60001C24.0233 3.60001 24.4987 3.80001 24.9 4.20001C25.3013 4.60001 25.5013 5.06667 25.5 5.60001C25.4987 6.13334 25.2987 6.60001 24.9 7.00001L23.05 8.85001C23.1167 8.98334 23.1913 9.11667 23.274 9.25001C23.3567 9.38334 23.432 9.53334 23.5 9.70001L24.75 12.2L27.05 9.90001C27.45 9.50001 27.9253 9.30001 28.476 9.30001C29.0267 9.30001 29.5013 9.50001 29.9 9.90001C30.2987 10.3 30.4987 10.7753 30.5 11.326C30.5013 11.8767 30.3013 12.3513 29.9 12.75L27.5 15.1L30.3 16.5C30.5 16.6 30.7087 16.7087 30.926 16.826C31.1433 16.9433 31.3347 17.068 31.5 17.2L33.5 15.2C33.9 14.8 34.3667 14.6 34.9 14.6C35.4333 14.6 35.9 14.8 36.3 15.2C36.7 15.6 36.9 16.0753 36.9 16.626C36.9 17.1767 36.7 17.6513 36.3 18.05L34.3 20C34.7 20.6 35.0253 21.2333 35.276 21.9C35.5267 22.5667 35.718 23.2667 35.85 24H38C38.5667 24 39.042 24.192 39.426 24.576C39.81 24.96 40.0013 25.4347 40 26C39.9987 26.5653 39.8067 27.0407 39.424 27.426C39.0413 27.8113 38.5667 28.0027 38 28H35.75C35.5833 28.6333 35.3833 29.2253 35.15 29.776C34.9167 30.3267 34.6167 30.868 34.25 31.4L35.95 33.1C36.35 33.5 36.55 33.9753 36.55 34.526C36.55 35.0767 36.35 35.5513 35.95 35.95C35.55 36.3167 35.0753 36.5087 34.526 36.526C33.9767 36.5433 33.5013 36.3513 33.1 35.95L31.45 34.25C30.9167 34.6167 30.3667 34.9167 29.8 35.15C29.2333 35.3833 28.6333 35.5833 28 35.75V38C28 38.5667 27.8087 39.042 27.426 39.426C27.0433 39.81 26.568 40.0013 26 40ZM25.7 32C27.6333 32 29.2253 31.2667 30.476 29.8C31.7267 28.3333 32.2013 26.6333 31.9 24.7C31.7333 23.7 31.3587 22.8 30.776 22C30.1933 21.2 29.4347 20.5667 28.5 20.1L25.2 18.4C24.4333 18 23.742 17.492 23.126 16.876C22.51 16.26 22.0013 15.568 21.6 14.8L19.9 11.5C19.3667 10.4333 18.6 9.58334 17.6 8.95001C16.6 8.31667 15.5 8.00001 14.3 8.00001C12.3667 8.00001 10.7753 8.73334 9.52601 10.2C8.27667 11.6667 7.80134 13.3667 8.10001 15.3C8.26667 16.3 8.64201 17.2 9.22601 18C9.81001 18.8 10.568 19.4333 11.5 19.9L14.8 21.6C15.5667 22 16.2587 22.508 16.876 23.124C17.4933 23.74 18.0013 24.432 18.4 25.2L20.1 28.5C20.6333 29.5667 21.4 30.4167 22.4 31.05C23.4 31.6833 24.5 32 25.7 32ZM15 17C15.8333 17 16.542 16.7087 17.126 16.126C17.71 15.5433 18.0013 14.8347 18 14C17.9987 13.1653 17.7073 12.4573 17.126 11.876C16.5447 11.2947 15.836 11.0027 15 11C14.164 10.9973 13.456 11.2893 12.876 11.876C12.296 12.4627 12.004 13.1707 12 14C11.996 14.8293 12.288 15.538 12.876 16.126C13.464 16.714 14.172 17.0053 15 17ZM25 29.5C25.7 29.5 26.292 29.258 26.776 28.774C27.26 28.29 27.5013 27.6987 27.5 27C27.4987 26.3013 27.2567 25.7093 26.774 25.224C26.2913 24.7387 25.7 24.4973 25 24.5C24.3 24.5027 23.708 24.7447 23.224 25.226C22.74 25.7073 22.4987 26.2987 22.5 27C22.5013 27.7013 22.7433 28.2933 23.226 28.776C23.7087 29.2587 24.3 29.5 25 29.5Z" fill="white"/>
</svg>
