<svg width="36" height="42" viewBox="0 0 36 42" fill="none" xmlns="http://www.w3.org/2000/svg">
<path d="M34.8465 32.427L24 17.5125V3H27V0H9.00004V3H12V17.5125L1.15354 32.427C0.499293 33.3262 0.10656 34.3888 0.0188009 35.4973C-0.0689581 36.6059 0.151678 37.7171 0.656296 38.708C1.16091 39.6989 1.92984 40.5309 2.87799 41.1119C3.82614 41.6929 4.91654 42.0003 6.02854 42H29.97C31.082 42.0003 32.1725 41.6929 33.1206 41.1119C34.0687 40.5309 34.8377 39.6989 35.3423 38.708C35.8469 37.7171 36.0675 36.6059 35.9798 35.4973C35.892 34.3888 35.4993 33.3262 34.845 32.427M15 18.4875V3H21V18.4875L25.0095 24H10.9905L15 18.4875ZM29.9715 39H6.03004C5.47173 38.9994 4.92444 38.8445 4.44857 38.5525C3.97271 38.2605 3.58678 37.8427 3.33337 37.3452C3.07997 36.8477 2.96895 36.2899 3.01257 35.7333C3.05618 35.1767 3.25274 34.643 3.58054 34.191L8.80954 27H27.1905L32.421 34.191C32.7488 34.643 32.9454 35.1767 32.989 35.7333C33.0326 36.2899 32.9216 36.8477 32.6682 37.3452C32.4148 37.8427 32.0289 38.2605 31.553 38.5525C31.0771 38.8445 30.5299 38.9994 29.9715 39Z" fill="white"/>
</svg>
