<svg width="36" height="36" viewBox="0 0 36 36" fill="none" xmlns="http://www.w3.org/2000/svg">
<path d="M18.0002 16C18.5306 16 19.0393 16.2107 19.4144 16.5858C19.7895 16.9608 20.0002 17.4696 20.0002 18C20.0002 18.5304 19.7895 19.0391 19.4144 19.4142C19.0393 19.7893 18.5306 20 18.0002 20C17.4698 20 16.9611 19.7893 16.586 19.4142C16.2109 19.0391 16.0002 18.5304 16.0002 18C16.0002 17.4696 16.2109 16.9608 16.586 16.5858C16.9611 16.2107 17.4698 16 18.0002 16ZM2.4402 2.43999C5.3002 -0.420011 11.5002 0.85999 18.0002 5.11999C24.5002 0.85999 30.7002 -0.420011 33.5602 2.43999C36.4202 5.29999 35.1402 11.5 30.8802 18C35.1402 24.5 36.4202 30.7 33.5602 33.56C30.7002 36.42 24.5002 35.14 18.0002 30.88C11.5002 35.14 5.3002 36.42 2.4402 33.56C-0.419797 30.7 0.860203 24.5 5.1202 18C0.860203 11.5 -0.419797 5.29999 2.4402 2.43999ZM25.0802 10.92C26.3002 12.16 27.4202 13.42 28.4602 14.68C31.2202 10.42 32.2202 6.75999 30.7202 5.27999C29.2402 3.77999 25.5802 4.77999 21.3202 7.53999C22.5802 8.57999 23.8402 9.69999 25.0802 10.92ZM10.9202 25.08C9.7002 23.84 8.5802 22.58 7.5402 21.32C4.7802 25.58 3.7802 29.24 5.2802 30.72C6.7602 32.22 10.4202 31.22 14.6802 28.46C13.4202 27.42 12.1602 26.3 10.9202 25.08ZM5.2802 5.27999C3.7802 6.75999 4.7802 10.42 7.5402 14.68C8.5802 13.42 9.7002 12.16 10.9202 10.92C12.1602 9.69999 13.4202 8.57999 14.6802 7.53999C10.4202 4.77999 6.7602 3.77999 5.2802 5.27999ZM13.7602 22.24C15.1602 23.64 16.6002 24.92 18.0002 26.06C19.4002 24.92 20.8402 23.64 22.2402 22.24C23.6402 20.84 24.9202 19.4 26.0602 18C24.9202 16.6 23.6402 15.16 22.2402 13.76C20.8402 12.36 19.4002 11.08 18.0002 9.93999C16.6002 11.08 15.1602 12.36 13.7602 13.76C12.3602 15.16 11.0802 16.6 9.9402 18C11.0802 19.4 12.3602 20.84 13.7602 22.24ZM30.7202 30.72C32.2202 29.24 31.2202 25.58 28.4602 21.32C27.4202 22.58 26.3002 23.84 25.0802 25.08C23.8402 26.3 22.5802 27.42 21.3202 28.46C25.5802 31.22 29.2402 32.22 30.7202 30.72Z" fill="white"/>
</svg>
