<svg width="48" height="48" viewBox="0 0 48 48" fill="none" xmlns="http://www.w3.org/2000/svg">
<path d="M34.6292 13.3715C38.3322 14.9539 42.4968 15.0764 46.2864 13.7144M13.7149 46.2858C15.0757 42.4843 14.9533 38.3096 13.3721 34.5944C12.1344 31.6362 11.7996 28.378 12.4096 25.2299C13.0197 22.0818 14.5475 19.1846 16.8006 16.9029C19.1104 14.6171 22.0451 13.0662 25.2349 12.4458" stroke="white" stroke-width="3.42857" stroke-linecap="round" stroke-linejoin="round"/>
<path d="M22.6286 35.5543C25.8346 34.9307 28.7826 33.3672 31.0972 31.0629M31.0972 31.0629C33.3543 28.7837 34.8847 25.8863 35.495 22.7372C36.1053 19.5881 35.768 16.3288 34.5258 13.3714C32.9768 9.6554 32.8911 5.49093 34.2858 1.71429M31.0972 31.0629L16.9372 16.9029M1.71436 34.2857C5.50551 32.9173 9.67673 33.0522 13.3715 34.6629" stroke="white" stroke-width="3.42857" stroke-linecap="round" stroke-linejoin="round"/>
</svg>
