<svg width="37" height="40" viewBox="0 0 37 40" fill="none" xmlns="http://www.w3.org/2000/svg">
<path fill-rule="evenodd" clip-rule="evenodd" d="M14.5 6.51597L4.5 7.76597V18H14.5V6.51597ZM18.5 6.01597V18H32.5V4.26597L18.5 6.01597ZM14.5 22H4.5V32.234L14.5 33.484V22ZM18.5 33.984V22H32.5V35.734L18.5 33.984ZM0.5 7.76397V32.234C0.499788 33.2091 0.855778 34.1507 1.50105 34.8818C2.14631 35.6129 3.03641 36.083 4.004 36.204L33.128 39.844C33.55 39.8967 33.9784 39.8591 34.3848 39.7337C34.7912 39.6082 35.1663 39.3978 35.4851 39.1164C35.804 38.835 36.0594 38.489 36.2344 38.1013C36.4093 37.7137 36.4999 37.2933 36.5 36.868V3.13197C36.4999 2.70667 36.4093 2.28625 36.2344 1.89861C36.0594 1.51097 35.804 1.16496 35.4851 0.883533C35.1663 0.602107 34.7912 0.391698 34.3848 0.266261C33.9784 0.140825 33.55 0.103229 33.128 0.155966L4.004 3.79597C3.03641 3.91688 2.14631 4.38708 1.50105 5.11816C0.855778 5.84924 0.499788 6.78885 0.5 7.76397Z" fill="white"/>
</svg>
